<mxfile host="app.diagrams.net" modified="2024-03-13T17:30:35.285Z" agent="Mozilla/5.0 (X11; Ubuntu; Linux x86_64; rv:123.0) Gecko/20100101 Firefox/123.0" etag="MwqSYks6oS4HiH4_LKFf" version="24.0.5" type="github">
  <diagram name="Page-1" id="J5l5RWatPEWsos0BZqSf">
    <mxGraphModel dx="1434" dy="696" grid="1" gridSize="10" guides="1" tooltips="1" connect="1" arrows="1" fold="1" page="1" pageScale="1" pageWidth="827" pageHeight="1169" math="0" shadow="0">
      <root>
        <mxCell id="0" />
        <mxCell id="1" parent="0" />
        <mxCell id="7TIC5C37rqPPPzWU6W-Q-7" style="edgeStyle=orthogonalEdgeStyle;rounded=0;orthogonalLoop=1;jettySize=auto;html=1;exitX=1;exitY=0.25;exitDx=0;exitDy=0;entryX=0;entryY=0.25;entryDx=0;entryDy=0;" edge="1" parent="1" source="7TIC5C37rqPPPzWU6W-Q-1" target="7TIC5C37rqPPPzWU6W-Q-11">
          <mxGeometry relative="1" as="geometry">
            <mxPoint x="410" y="195" as="targetPoint" />
          </mxGeometry>
        </mxCell>
        <mxCell id="7TIC5C37rqPPPzWU6W-Q-8" value="1. POST /movie" style="edgeLabel;html=1;align=center;verticalAlign=middle;resizable=0;points=[];" vertex="1" connectable="0" parent="7TIC5C37rqPPPzWU6W-Q-7">
          <mxGeometry x="-0.0154" y="1" relative="1" as="geometry">
            <mxPoint as="offset" />
          </mxGeometry>
        </mxCell>
        <mxCell id="7TIC5C37rqPPPzWU6W-Q-1" value="web application" style="rounded=0;whiteSpace=wrap;html=1;fillColor=#d5e8d4;strokeColor=#82b366;" vertex="1" parent="1">
          <mxGeometry x="118" y="180" width="130" height="60" as="geometry" />
        </mxCell>
        <mxCell id="7TIC5C37rqPPPzWU6W-Q-14" style="edgeStyle=orthogonalEdgeStyle;rounded=0;orthogonalLoop=1;jettySize=auto;html=1;dashed=1;" edge="1" parent="1" source="7TIC5C37rqPPPzWU6W-Q-9" target="7TIC5C37rqPPPzWU6W-Q-13">
          <mxGeometry relative="1" as="geometry">
            <mxPoint x="511" y="91.20000000000005" as="targetPoint" />
          </mxGeometry>
        </mxCell>
        <mxCell id="7TIC5C37rqPPPzWU6W-Q-9" value="MongoDB" style="dashed=0;outlineConnect=0;html=1;align=center;labelPosition=center;verticalLabelPosition=bottom;verticalAlign=top;shape=mxgraph.webicons.mongodb;gradientColor=#DFDEDE" vertex="1" parent="1">
          <mxGeometry x="420" y="60" width="62.4" height="62.4" as="geometry" />
        </mxCell>
        <mxCell id="7TIC5C37rqPPPzWU6W-Q-12" style="edgeStyle=orthogonalEdgeStyle;rounded=0;orthogonalLoop=1;jettySize=auto;html=1;dashed=1;" edge="1" parent="1" source="7TIC5C37rqPPPzWU6W-Q-11" target="7TIC5C37rqPPPzWU6W-Q-9">
          <mxGeometry relative="1" as="geometry" />
        </mxCell>
        <mxCell id="7TIC5C37rqPPPzWU6W-Q-18" style="edgeStyle=orthogonalEdgeStyle;rounded=0;orthogonalLoop=1;jettySize=auto;html=1;entryX=0.5;entryY=0;entryDx=0;entryDy=0;entryPerimeter=0;" edge="1" parent="1" source="7TIC5C37rqPPPzWU6W-Q-11" target="7TIC5C37rqPPPzWU6W-Q-21">
          <mxGeometry relative="1" as="geometry">
            <mxPoint x="451.10000000000014" y="289" as="targetPoint" />
          </mxGeometry>
        </mxCell>
        <mxCell id="7TIC5C37rqPPPzWU6W-Q-20" value="2. save video trailer and photos" style="edgeLabel;html=1;align=center;verticalAlign=middle;resizable=0;points=[];" vertex="1" connectable="0" parent="7TIC5C37rqPPPzWU6W-Q-18">
          <mxGeometry x="-0.1853" y="1" relative="1" as="geometry">
            <mxPoint as="offset" />
          </mxGeometry>
        </mxCell>
        <mxCell id="7TIC5C37rqPPPzWU6W-Q-24" style="edgeStyle=orthogonalEdgeStyle;rounded=0;orthogonalLoop=1;jettySize=auto;html=1;exitX=1;exitY=0.5;exitDx=0;exitDy=0;" edge="1" parent="1" source="7TIC5C37rqPPPzWU6W-Q-11" target="7TIC5C37rqPPPzWU6W-Q-23">
          <mxGeometry relative="1" as="geometry" />
        </mxCell>
        <mxCell id="7TIC5C37rqPPPzWU6W-Q-33" value="&lt;div&gt;3. Message&lt;/div&gt;&lt;div&gt;about&lt;/div&gt;&lt;div&gt;accounting&lt;br&gt;&lt;/div&gt;" style="edgeLabel;html=1;align=center;verticalAlign=middle;resizable=0;points=[];" vertex="1" connectable="0" parent="7TIC5C37rqPPPzWU6W-Q-24">
          <mxGeometry x="-0.0269" y="-2" relative="1" as="geometry">
            <mxPoint as="offset" />
          </mxGeometry>
        </mxCell>
        <mxCell id="7TIC5C37rqPPPzWU6W-Q-11" value="catalog and inventory processor" style="rounded=0;whiteSpace=wrap;html=1;fillColor=#d5e8d4;strokeColor=#82b366;" vertex="1" parent="1">
          <mxGeometry x="391.2" y="180" width="120" height="60" as="geometry" />
        </mxCell>
        <mxCell id="7TIC5C37rqPPPzWU6W-Q-13" value="Amazon Elasticsearch Service" style="sketch=0;outlineConnect=0;fontColor=#232F3E;gradientColor=none;strokeColor=#ffffff;fillColor=#232F3E;dashed=0;verticalLabelPosition=middle;verticalAlign=bottom;align=center;html=1;whiteSpace=wrap;fontSize=10;fontStyle=1;spacing=3;shape=mxgraph.aws4.productIcon;prIcon=mxgraph.aws4.elasticsearch_service;" vertex="1" parent="1">
          <mxGeometry x="551" y="31.2" width="80" height="120" as="geometry" />
        </mxCell>
        <mxCell id="7TIC5C37rqPPPzWU6W-Q-15" value="CDN" style="sketch=0;points=[[0,0,0],[0.25,0,0],[0.5,0,0],[0.75,0,0],[1,0,0],[0,1,0],[0.25,1,0],[0.5,1,0],[0.75,1,0],[1,1,0],[0,0.25,0],[0,0.5,0],[0,0.75,0],[1,0.25,0],[1,0.5,0],[1,0.75,0]];outlineConnect=0;fontColor=#232F3E;fillColor=#8C4FFF;strokeColor=#ffffff;dashed=0;verticalLabelPosition=bottom;verticalAlign=top;align=center;html=1;fontSize=12;fontStyle=0;aspect=fixed;shape=mxgraph.aws4.resourceIcon;resIcon=mxgraph.aws4.cloudfront;" vertex="1" parent="1">
          <mxGeometry x="170" y="309" width="78" height="78" as="geometry" />
        </mxCell>
        <mxCell id="7TIC5C37rqPPPzWU6W-Q-19" style="edgeStyle=orthogonalEdgeStyle;rounded=0;orthogonalLoop=1;jettySize=auto;html=1;exitX=0;exitY=0.5;exitDx=0;exitDy=0;exitPerimeter=0;" edge="1" parent="1" source="7TIC5C37rqPPPzWU6W-Q-21" target="7TIC5C37rqPPPzWU6W-Q-15">
          <mxGeometry relative="1" as="geometry">
            <mxPoint x="420.20000000000005" y="338" as="sourcePoint" />
          </mxGeometry>
        </mxCell>
        <mxCell id="7TIC5C37rqPPPzWU6W-Q-21" value="S3" style="sketch=0;points=[[0,0,0],[0.25,0,0],[0.5,0,0],[0.75,0,0],[1,0,0],[0,1,0],[0.25,1,0],[0.5,1,0],[0.75,1,0],[1,1,0],[0,0.25,0],[0,0.5,0],[0,0.75,0],[1,0.25,0],[1,0.5,0],[1,0.75,0]];outlineConnect=0;fontColor=#232F3E;fillColor=#7AA116;strokeColor=#ffffff;dashed=0;verticalLabelPosition=bottom;verticalAlign=top;align=center;html=1;fontSize=12;fontStyle=0;aspect=fixed;shape=mxgraph.aws4.resourceIcon;resIcon=mxgraph.aws4.s3;" vertex="1" parent="1">
          <mxGeometry x="412.2" y="309" width="78" height="78" as="geometry" />
        </mxCell>
        <mxCell id="7TIC5C37rqPPPzWU6W-Q-30" style="edgeStyle=orthogonalEdgeStyle;rounded=0;orthogonalLoop=1;jettySize=auto;html=1;dashed=1;" edge="1" parent="1" source="7TIC5C37rqPPPzWU6W-Q-22" target="7TIC5C37rqPPPzWU6W-Q-29">
          <mxGeometry relative="1" as="geometry" />
        </mxCell>
        <mxCell id="7TIC5C37rqPPPzWU6W-Q-22" value="accounting" style="rounded=0;whiteSpace=wrap;html=1;fillColor=#d5e8d4;strokeColor=#82b366;" vertex="1" parent="1">
          <mxGeometry x="610" y="309" width="120" height="60" as="geometry" />
        </mxCell>
        <mxCell id="7TIC5C37rqPPPzWU6W-Q-25" style="edgeStyle=orthogonalEdgeStyle;rounded=0;orthogonalLoop=1;jettySize=auto;html=1;entryX=0.5;entryY=0;entryDx=0;entryDy=0;" edge="1" parent="1" source="7TIC5C37rqPPPzWU6W-Q-23" target="7TIC5C37rqPPPzWU6W-Q-22">
          <mxGeometry relative="1" as="geometry" />
        </mxCell>
        <mxCell id="7TIC5C37rqPPPzWU6W-Q-23" value="kafka" style="shape=cylinder3;whiteSpace=wrap;html=1;boundedLbl=1;backgroundOutline=1;size=15;direction=south;fillColor=#dae8fc;strokeColor=#6c8ebf;" vertex="1" parent="1">
          <mxGeometry x="630" y="180" width="80" height="60" as="geometry" />
        </mxCell>
        <mxCell id="7TIC5C37rqPPPzWU6W-Q-28" style="edgeStyle=orthogonalEdgeStyle;rounded=0;orthogonalLoop=1;jettySize=auto;html=1;dashed=1;" edge="1" parent="1" source="7TIC5C37rqPPPzWU6W-Q-26" target="7TIC5C37rqPPPzWU6W-Q-13">
          <mxGeometry relative="1" as="geometry">
            <mxPoint x="910" y="90" as="targetPoint" />
            <Array as="points">
              <mxPoint x="887" y="70" />
            </Array>
          </mxGeometry>
        </mxCell>
        <mxCell id="7TIC5C37rqPPPzWU6W-Q-26" value="search and recommandation engine" style="rounded=0;whiteSpace=wrap;html=1;fillColor=#d5e8d4;strokeColor=#82b366;" vertex="1" parent="1">
          <mxGeometry x="827" y="180" width="120" height="60" as="geometry" />
        </mxCell>
        <mxCell id="7TIC5C37rqPPPzWU6W-Q-29" value="MongoDB" style="dashed=0;outlineConnect=0;html=1;align=center;labelPosition=center;verticalLabelPosition=bottom;verticalAlign=top;shape=mxgraph.webicons.mongodb;gradientColor=#DFDEDE" vertex="1" parent="1">
          <mxGeometry x="638.8" y="420" width="62.4" height="62.4" as="geometry" />
        </mxCell>
      </root>
    </mxGraphModel>
  </diagram>
</mxfile>
